<svg width="40" height="40" viewBox="0 0 40 40" fill="none" xmlns="http://www.w3.org/2000/svg">
<path d="M22.5 20C26.6242 20 30.268 16.1164 30.625 11.3422C30.8023 8.94375 30.05 6.70703 28.5063 5.04531C26.9789 3.40391 24.8438 2.5 22.5 2.5C20.1375 2.5 18.0008 3.39844 16.4844 5.02969C14.9508 6.67891 14.2031 8.92031 14.375 11.3406C14.7258 16.1156 18.3687 20 22.5 20ZM38.7016 34.3563C38.0422 30.6984 35.9836 27.6258 32.7492 25.4695C29.8766 23.5547 26.2367 22.5 22.5 22.5C18.7633 22.5 15.1234 23.5547 12.2508 25.4688C9.01641 27.625 6.95781 30.6977 6.29844 34.3555C6.14766 35.1937 6.35234 36.0227 6.86016 36.6297C7.09048 36.9063 7.37969 37.128 7.70665 37.2786C8.03361 37.4292 8.39007 37.5048 8.75 37.5H36.25C36.6101 37.5051 36.9669 37.4297 37.2941 37.2793C37.6213 37.1288 37.9108 36.9072 38.1414 36.6305C38.6477 36.0234 38.8523 35.1945 38.7016 34.3563ZM8.125 22.5V19.375H11.25C11.5815 19.375 11.8995 19.2433 12.1339 19.0089C12.3683 18.7745 12.5 18.4565 12.5 18.125C12.5 17.7935 12.3683 17.4755 12.1339 17.2411C11.8995 17.0067 11.5815 16.875 11.25 16.875H8.125V13.75C8.125 13.4185 7.9933 13.1005 7.75888 12.8661C7.52446 12.6317 7.20652 12.5 6.875 12.5C6.54348 12.5 6.22554 12.6317 5.99112 12.8661C5.7567 13.1005 5.625 13.4185 5.625 13.75V16.875H2.5C2.16848 16.875 1.85054 17.0067 1.61612 17.2411C1.3817 17.4755 1.25 17.7935 1.25 18.125C1.25 18.4565 1.3817 18.7745 1.61612 19.0089C1.85054 19.2433 2.16848 19.375 2.5 19.375H5.625V22.5C5.625 22.8315 5.7567 23.1495 5.99112 23.3839C6.22554 23.6183 6.54348 23.75 6.875 23.75C7.20652 23.75 7.52446 23.6183 7.75888 23.3839C7.9933 23.1495 8.125 22.8315 8.125 22.5Z" fill="#9C6700"/>
</svg>
