<svg width="512" height="512" viewBox="0 0 512 512" fill="none" xmlns="http://www.w3.org/2000/svg">
<path d="M432 224V96C432 91.7565 430.314 87.6869 427.314 84.6863C424.313 81.6857 420.243 80 416 80H96C91.7565 80 87.6869 81.6857 84.6863 84.6863C81.6857 87.6869 80 91.7565 80 96V224C67.2696 224 55.0606 229.057 46.0589 238.059C37.0571 247.061 32 259.27 32 272V432H68V400H444V432H480V272C480 259.27 474.943 247.061 465.941 238.059C456.939 229.057 444.73 224 432 224ZM240 224H120V192C120 187.757 121.686 183.687 124.686 180.686C127.687 177.686 131.757 176 136 176H224C228.243 176 232.313 177.686 235.314 180.686C238.314 183.687 240 187.757 240 192V224ZM272 192C272 187.757 273.686 183.687 276.686 180.686C279.687 177.686 283.757 176 288 176H376C380.243 176 384.313 177.686 387.314 180.686C390.314 183.687 392 187.757 392 192V224H272V192Z" fill="white"/>
</svg>
